<svg version="1" xmlns="http://www.w3.org/2000/svg" width="666.667" height="666.667" viewBox="0 0 500.000000 500.000000" class="icon"><!----><defs data-v-fde0c5aa=""><!----></defs><rect data-v-fde0c5aa="" fill="#00acff" x="0" y="0" width="300px" height="300px" class="logo-background-square"></rect><!----><defs data-v-fde0c5aa=""><!----></defs><g data-v-fde0c5aa="" id="cc28e034-3fad-432b-86c8-4ee7e3e8fd90" fill="#010033" stroke="none" transform="matrix(2.7492721577158146,0,0,2.7492721577158146,12.566250428086438,25.958163036290287)"><ellipse transform="rotate(-72.158 66.912 62.266)" cx="66.908" cy="62.265" rx="4.519" ry="5.932"></ellipse><path d="M68.91 71.75c-7.604-1.508-11.193-12.25-11.437-13.229 1.406-.169 2.632-.982 3.494-2.338 1.09-1.714 1.404-3.977.747-5.379-2.54-5.437-5.332-7.826-9-10.608-.832-.631-1.713-.952-2.619-.952-2.173 0-3.607 1.77-4.436 3.275-2.788-5.876-4.138-13.085-4.263-19.757a2.674 2.674 0 0 0-.217-.986c-.016-.043-.026-.085-.047-.127a2.843 2.843 0 0 0-.811-.998c-1.009-1.266-3.098-4.665-2.231-10.377a1.442 1.442 0 0 0-1.209-1.643 1.45 1.45 0 0 0-1.643 1.21c-.775 5.104.484 8.741 1.729 10.949-.598.663-.997 1.781-.932 3.522.139 3.675 2.879 13.545 3.969 17.338a18.285 18.285 0 0 1-1.478-1.206c-2.329-2.15-4.782-7.793-5.916-14.75-.288-1.768-1.114-2.771-1.989-2.961-1.353-1.276-3.783-4.281-3.867-9.48-.013-.796-.658-1.398-1.466-1.419a1.444 1.444 0 0 0-1.419 1.466c.096 5.898 2.741 9.51 4.515 11.279-.285.812-.453 1.879-.407 3.247.11 3.288 3.486 12.309 5.882 15.685 4.501 6.34 14.446 16.643 14.789 18.806.659 4.146.472 9.854 2.58 11.714 2.465 2.171 7.976 6.723 10.081 7.325 3.917 1.12 5.923-1.543 2.16-3.752-1.962-1.152-6.451-3.672-7.302-5.255-.481-.896.028-4.085-.165-6.042.621 1.448 3.626 5.126 4.25 5.88 1.482 1.791 4.404 2.83 6.628 3.51 3.039.928 8.347-2.695 2.03-3.947zM50.089 43.09c.001 0 .101.018.301.169 3.326 2.523 5.668 4.524 7.806 9.083.062.271-.076 1.296-.612 1.968-.21.263-.387.353-.513.383l-8.215-9.978c.413-.824.947-1.554 1.233-1.625zM58.877 28.796c-.096.097-.144.156-.144.156a.964.964 0 0 0 .093 1.333c.383.346.97.33 1.33-.041l.108-.115a4.47 4.47 0 0 1 3.11-1.255c.852 0 1.751.235 2.674.699 1.038.521 3.793 1.734 6.961 1.734 3.251 0 5.943-1.313 7.786-3.797a.962.962 0 0 0-.037-1.192c-.13-.155-3.244-3.783-8.431-3.783-1.376 0-2.782.261-4.178.776-1.48.546-2.731.812-3.825.812-1.954 0-3.285-.812-5.201-2.411a.962.962 0 0 0-1.302 1.413c.032.034 3.191 3.298 1.056 5.671zM25.592 63.711c-1.288 0-2.642.259-4.026.77-4.087 1.508-6.783 1.524-9.163-.025a8.885 8.885 0 0 0-.933-.689.96.96 0 0 0-1.125 1.554c.296.247.6.475.903.678 1.035.883 2.091 2.175 1.431 3.426-.395.44-.605.793-.629.834a.962.962 0 0 0 1.52 1.155 5.08 5.08 0 0 0 .662-.835c.552-.571 1.451-1.218 2.693-1.218.683 0 1.417.195 2.184.581 1.539.773 4.403 2.213 7.37 2.214 2.668 0 4.872-1.146 6.548-3.408a.963.963 0 0 0 .048-1.075c-.096-.162-2.478-3.962-7.483-3.962zM89.774 40.7c-.104-.124-2.592-3.022-6.732-3.022a9.628 9.628 0 0 0-3.332.618c-3.024 1.115-5.222 1.156-7.015.087-.475-.385-.856-.613-.899-.639a.961.961 0 0 0-1.105 1.567c.285.237.583.454.885.642.73.615 1.169 1.253 1.205 1.758.022.304-.103.603-.381.914a2.219 2.219 0 0 0-.117.126.966.966 0 0 0 .094 1.333.956.956 0 0 0 1.329-.041l.082-.087a3.272 3.272 0 0 1 2.275-.917c.63 0 1.3.176 1.99.523.822.413 3.005 1.374 5.519 1.374 2.604 0 4.761-1.053 6.238-3.046a.958.958 0 0 0-.036-1.19z"></path></g><!----></svg>